<?xml version="1.0" standalone="no"?><!DOCTYPE svg PUBLIC "-//W3C//DTD SVG 1.1//EN" "http://www.w3.org/Graphics/SVG/1.1/DTD/svg11.dtd"><svg t="1712140697341" class="icon" viewBox="0 0 1024 1024" version="1.1" xmlns="http://www.w3.org/2000/svg" p-id="919" xmlns:xlink="http://www.w3.org/1999/xlink" width="200" height="200"><path d="M521.867 876.448c-202.202 0-366.675-164.516-366.675-366.678 0-202.159 164.475-366.672 366.675-366.672 202.164 0 366.671 164.509 366.671 366.672 0 202.17-164.507 366.678-366.67 366.678z" fill="#2C2C2C" p-id="920"></path><path d="M449.759 533.32h84.261c0-19.81-9.342-31.415-9.342-31.415h-73.125c1.737-35.888 3.295-81.95 3.85-99.058h69.559s-0.378-29.434-8.114-29.434H394.58s7.362-38.493 17.171-55.485c0 0-36.508-1.971-48.963 46.71-12.452 48.68-31.132 78.115-33.113 83.492-1.981 5.376 10.755 2.546 16.131 0 5.378-2.548 29.718-11.322 36.793-45.283h37.806c0.51 21.523 2.007 87.484 1.535 99.058H344.11c-11.037 7.924-14.716 31.416-14.716 31.416h88.957c-3.71 24.565-10.224 56.23-19.334 73.018-14.432 26.604-22.076 50.944-74.153 92.833 0 0-8.49 6.226 17.83 3.961 26.322-2.262 51.23-9.056 68.492-43.586 8.976-17.951 18.257-40.722 25.498-63.817l-0.025 0.082 73.302 84.397s9.622-22.64 2.548-47.548l-54.34-60.85-18.395 13.605-0.022 0.067c5.11-17.914 8.783-35.624 9.926-51.032 0.028-0.37 0.056-0.75 0.08-1.13z m0 0" fill="#FFFFFF" p-id="921"></path><path d="M551.568 367.185v292.08h30.707l12.58 35.159 53.224-35.159h67.076v-292.08H551.568zM683.55 627.85h-34.864l-43.487 28.726-10.278-28.726h-10.853V399.78h99.483v228.07h-0.001z m0 0" fill="#FFFFFF" p-id="922"></path></svg>